<!--?xml version="1.0" encoding="utf-8"?-->
<!-- Generator: Adobe Illustrator 15.1.0, SVG Export Plug-In . SVG Version: 6.00 Build 0)  -->

<svg version="1.1" id="_x32_" xmlns="http://www.w3.org/2000/svg" xmlns:xlink="http://www.w3.org/1999/xlink" x="0px" y="0px" width="512px" height="512px" viewBox="0 0 512 512" style="width: 256px; height: 256px; opacity: 1;" xml:space="preserve">
<style type="text/css">

	.st0{fill:#4B4B4B;}

</style>
<g>
	<rect x="119.25" y="409.422" class="st0" width="273.5" height="50.047" style="fill: rgb(75, 75, 75);"></rect>
	<path class="st0" d="M403.594,99.234c-8.313,0-16.375,0.953-24.141,2.734c8.891,13.297,15.703,28.109,19.938,43.969h-17.328
		C365.641,91.875,315.422,52.531,256,52.531s-109.641,39.344-126.063,93.406h-17.328c4.234-15.859,11.047-30.672,19.938-43.969
		c-7.766-1.781-15.828-2.734-24.141-2.734C48.531,99.234,0,147.766,0,207.625C0,267.5,48.531,316.047,108.406,316.047
		c3.656,0,7.266-0.188,10.844-0.547v73.922h273.5V315.5c3.578,0.359,7.188,0.547,10.844,0.547
		C463.469,316.047,512,267.5,512,207.625C512,147.766,463.469,99.234,403.594,99.234z M213.469,362.734h-16.672v-90.063h16.672
		V362.734z M315.203,362.734h-16.672v-90.063h16.672V362.734z" style="fill: rgb(75, 75, 75);"></path>
</g>
</svg>
